<?xml version="1.0" encoding="UTF-8" standalone="no"?>
<!-- Created with Inkscape (http://www.inkscape.org/) -->

<svg
   xmlns:dc="http://purl.org/dc/elements/1.1/"
   xmlns:cc="http://creativecommons.org/ns#"
   xmlns:rdf="http://www.w3.org/1999/02/22-rdf-syntax-ns#"
   xmlns:svg="http://www.w3.org/2000/svg"
   xmlns="http://www.w3.org/2000/svg"
   xmlns:sodipodi="http://sodipodi.sourceforge.net/DTD/sodipodi-0.dtd"
   xmlns:inkscape="http://www.inkscape.org/namespaces/inkscape"
   width="744.09448819"
   height="1052.3622047"
   id="svg2"
   version="1.1"
   inkscape:version="0.48.3.1 r9886"
   sodipodi:docname="panda-logo.svg"
   inkscape:export-filename="/home/jsteyn/panda-logo.png"
   inkscape:export-xdpi="100.12463"
   inkscape:export-ydpi="100.12463">
  <defs
     id="defs4">
    <inkscape:perspective
       sodipodi:type="inkscape:persp3d"
       inkscape:vp_x="0 : 526.18109 : 1"
       inkscape:vp_y="0 : 1000 : 0"
       inkscape:vp_z="744.09448 : 526.18109 : 1"
       inkscape:persp3d-origin="372.04724 : 350.78739 : 1"
       id="perspective3780" />
  </defs>
  <sodipodi:namedview
     id="base"
     pagecolor="#ffffff"
     bordercolor="#666666"
     borderopacity="1.0"
     inkscape:pageopacity="0.0"
     inkscape:pageshadow="2"
     inkscape:zoom="0.98994949"
     inkscape:cx="159.32451"
     inkscape:cy="330.22665"
     inkscape:document-units="px"
     inkscape:current-layer="layer1"
     showgrid="true"
     inkscape:window-width="1920"
     inkscape:window-height="1056"
     inkscape:window-x="0"
     inkscape:window-y="24"
     inkscape:window-maximized="1">
    <inkscape:grid
       type="xygrid"
       id="grid3835" />
  </sodipodi:namedview>
  <metadata
     id="metadata7">
    <rdf:RDF>
      <cc:Work
         rdf:about="">
        <dc:format>image/svg+xml</dc:format>
        <dc:type
           rdf:resource="http://purl.org/dc/dcmitype/StillImage" />
        <dc:title></dc:title>
      </cc:Work>
    </rdf:RDF>
  </metadata>
  <g
     inkscape:label="Layer 1"
     inkscape:groupmode="layer"
     id="layer1">
    <path
       sodipodi:type="arc"
       style="fill:#000000;stroke-width:82;stroke-linecap:butt;stroke-linejoin:round;stroke-miterlimit:4;stroke-dasharray:none;stroke-dashoffset:0"
       id="path3064"
       sodipodi:cx="130"
       sodipodi:cy="462.36218"
       sodipodi:rx="110"
       sodipodi:ry="110"
       d="m 240,462.36218 a 110,110 0 1 1 -220,0 110,110 0 1 1 220,0 z"
       transform="translate(-10,-30)" />
    <path
       sodipodi:type="arc"
       style="fill:#000000;stroke-width:82;stroke-linecap:butt;stroke-linejoin:round;stroke-miterlimit:4;stroke-dasharray:none;stroke-dashoffset:0"
       id="path3064-3"
       sodipodi:cx="130"
       sodipodi:cy="462.36218"
       sodipodi:rx="110"
       sodipodi:ry="110"
       d="m 240,462.36218 a 110,110 0 1 1 -220,0 110,110 0 1 1 220,0 z"
       transform="translate(490,-30)" />
    <path
       sodipodi:type="arc"
       style="stroke-width:82;stroke-linecap:butt;stroke-linejoin:round;stroke-miterlimit:4;stroke-dasharray:none;stroke-dashoffset:0;fill:#000000"
       id="path3044"
       sodipodi:cx="395"
       sodipodi:cy="797.36218"
       sodipodi:rx="265"
       sodipodi:ry="245"
       d="m 660,797.36218 a 265,245 0 1 1 -530,0 265,245 0 1 1 530,0 z"
       transform="matrix(1.3584906,0,0,1.4693878,-166.60378,-489.27204)" />
    <path
       sodipodi:type="arc"
       style="fill:#4d4d4d;stroke-width:82;stroke-linecap:butt;stroke-linejoin:round;stroke-miterlimit:4;stroke-dasharray:none;stroke-dashoffset:0"
       id="path3044-2"
       sodipodi:cx="395"
       sodipodi:cy="797.36218"
       sodipodi:rx="265"
       sodipodi:ry="245"
       d="m 660,797.36218 a 265,245 0 1 1 -530,0 265,245 0 1 1 530,0 z"
       transform="matrix(1.245283,0,0,1.3469387,-121.88679,-391.63581)" />
    <path
       sodipodi:type="arc"
       style="fill:#000000;stroke-width:82;stroke-linecap:butt;stroke-linejoin:round;stroke-miterlimit:4;stroke-dasharray:none;stroke-dashoffset:0"
       id="path3064-3-5"
       sodipodi:cx="130"
       sodipodi:cy="462.36218"
       sodipodi:rx="110"
       sodipodi:ry="110"
       d="m 240,462.36218 a 110,110 0 1 1 -220,0 110,110 0 1 1 220,0 z"
       transform="matrix(1,0,0,0.62727273,236,533.335)" />
    <path
       sodipodi:type="arc"
       style="fill:#000000;stroke-width:82;stroke-linecap:butt;stroke-linejoin:round;stroke-miterlimit:4;stroke-dasharray:none;stroke-dashoffset:0"
       id="path3064-3-5-2"
       sodipodi:cx="130"
       sodipodi:cy="462.36218"
       sodipodi:rx="110"
       sodipodi:ry="110"
       d="m 240,462.36218 a 110,110 0 1 1 -220,0 110,110 0 1 1 220,0 z"
       transform="matrix(0.68181818,0,0,0.7181818,276.36364,501.30208)" />
    <path
       sodipodi:type="arc"
       style="fill:#000000;stroke-width:82;stroke-linecap:butt;stroke-linejoin:round;stroke-miterlimit:4;stroke-dasharray:none;stroke-dashoffset:0"
       id="path3064-3-5-2-2-2"
       sodipodi:cx="130"
       sodipodi:cy="462.36218"
       sodipodi:rx="110"
       sodipodi:ry="110"
       d="m 240,462.36218 a 110,110 0 1 1 -220,0 110,110 0 1 1 220,0 z"
       transform="matrix(0.81818179,0,0,0.9681818,413.63637,208.21153)" />
    <path
       sodipodi:type="arc"
       style="fill:#ffffff;stroke-width:82;stroke-linecap:butt;stroke-linejoin:round;stroke-miterlimit:4;stroke-dasharray:none;stroke-dashoffset:0"
       id="path3064-3-5-2-2-2-5"
       sodipodi:cx="130"
       sodipodi:cy="462.36218"
       sodipodi:rx="110"
       sodipodi:ry="110"
       d="m 240,462.36218 a 110,110 0 1 1 -220,0 110,110 0 1 1 220,0 z"
       transform="matrix(0.27272724,0,0,0.26818182,464.54546,495.86505)" />
    <path
       sodipodi:type="arc"
       style="fill:#000000;stroke-width:82;stroke-linecap:butt;stroke-linejoin:round;stroke-miterlimit:4;stroke-dasharray:none;stroke-dashoffset:0"
       id="path3064-3-5-2-2-2-51"
       sodipodi:cx="130"
       sodipodi:cy="462.36218"
       sodipodi:rx="110"
       sodipodi:ry="110"
       d="m 240,462.36218 a 110,110 0 1 1 -220,0 110,110 0 1 1 220,0 z"
       transform="matrix(-0.81818179,0,0,0.9681818,326.36364,208.21153)" />
    <path
       sodipodi:type="arc"
       style="fill:#ffffff;stroke-width:82;stroke-linecap:butt;stroke-linejoin:round;stroke-miterlimit:4;stroke-dasharray:none;stroke-dashoffset:0"
       id="path3064-3-5-2-2-2-5-5"
       sodipodi:cx="130"
       sodipodi:cy="462.36218"
       sodipodi:rx="110"
       sodipodi:ry="110"
       d="m 240,462.36218 a 110,110 0 1 1 -220,0 110,110 0 1 1 220,0 z"
       transform="matrix(-0.27272724,0,0,0.26818182,275.45455,495.86505)" />
    <path
       sodipodi:type="arc"
       style="fill:#000000;stroke-width:82;stroke-linecap:butt;stroke-linejoin:round;stroke-miterlimit:4;stroke-dasharray:none;stroke-dashoffset:0"
       id="path3064-9"
       sodipodi:cx="130"
       sodipodi:cy="462.36218"
       sodipodi:rx="110"
       sodipodi:ry="110"
       d="m 240,462.36218 a 110,110 0 1 1 -220,0 110,110 0 1 1 220,0 z"
       transform="matrix(0.70710678,-0.70710678,0.44997705,0.44997705,-180.47878,315.73117)" />
    <path
       sodipodi:type="arc"
       style="fill:#000000;stroke-width:82;stroke-linecap:butt;stroke-linejoin:round;stroke-miterlimit:4;stroke-dasharray:none;stroke-dashoffset:0"
       id="path3064-9-4"
       sodipodi:cx="130"
       sodipodi:cy="462.36218"
       sodipodi:rx="110"
       sodipodi:ry="110"
       d="m 240,462.36218 a 110,110 0 1 1 -220,0 110,110 0 1 1 220,0 z"
       transform="matrix(-0.70710678,-0.70710678,-0.44997705,0.44997705,920.47878,315.73117)" />
  </g>
</svg>
